<svg xmlns="http://www.w3.org/2000/svg" xmlns:xlink="http://www.w3.org/1999/xlink" width="142.479" height="231.905" viewBox="0 0 142.479 231.905">
  <defs>
    <linearGradient id="linear-gradient" x1="0.5" x2="0.5" y2="1" gradientUnits="objectBoundingBox">
      <stop offset="0" stop-color="#61b0bb"/>
      <stop offset="1" stop-color="#4c848d"/>
    </linearGradient>
  </defs>
  <path id="Exclusion_1" data-name="Exclusion 1" d="M70.933,231.9c-1.539,0-6.556-7.26-13.764-19.918-7.368-12.939-16.149-30.022-24.093-46.87-9.347-19.823-17.265-38.667-22.9-54.5C3.417,91.625-.007,77.226,0,67.827A64.607,64.607,0,0,1,13.068,28.484a68.617,68.617,0,0,1,9.057-9.83,72.352,72.352,0,0,1,10.725-7.922A74.676,74.676,0,0,1,57.669,1.245,72.1,72.1,0,0,1,70.942,0,64.463,64.463,0,0,1,85.015,1.592,72.719,72.719,0,0,1,98.621,6.12a78.672,78.672,0,0,1,12.632,7.1,79.631,79.631,0,0,1,11.152,9.292,75.605,75.605,0,0,1,8.268,9.813,68.8,68.8,0,0,1,6.339,11,58.372,58.372,0,0,1,5.466,24.508c-.019,8.407-3.493,22.184-10.327,40.949-5.721,15.708-13.713,34.613-23.113,54.671-8.092,17.268-16.941,34.719-24.277,47.881-7.274,13.049-12.311,20.55-13.82,20.578Zm.51-195a32.4,32.4,0,1,0,12.65,2.554A32.3,32.3,0,0,0,71.443,36.905Z" fill="url(#linear-gradient)"/>
</svg>
